<?xml version="1.0" encoding="utf-8"?>
<!-- Generator: Adobe Illustrator 19.0.0, SVG Export Plug-In . SVG Version: 6.00 Build 0)  -->
<svg version="1.1" id="Layer_1" xmlns="http://www.w3.org/2000/svg" xmlns:xlink="http://www.w3.org/1999/xlink" x="0px" y="0px"
	 viewBox="0 0 200.3 70" style="enable-background:new 0 0 200.3 70;" xml:space="preserve">
<style type="text/css">
	.st0{fill:#F9B601;}
	.st1{fill:#F1F2F2;}
	.st2{fill:#F9B601;stroke:#F9B601;stroke-miterlimit:10;}
</style>
<g id="XMLID_1_">
	<path id="XMLID_2_" class="st0" d="M35.4,0.6C16.4,0.6,1,16,1,35c0,5.1,1.1,9.9,3.1,14.2c3.1-2.3,7.4-5.3,7.4-5.3
		c-1.4,0.2-3.6,1-3.6,1c2-2.5,4.6-4.1,7.5-5.6c-0.2-0.3-1.5-0.7-1.5-0.7s3.5-3,11.2-1.9c0.4-0.3,10.3-9.4,10.5-9.6
		c0,0.4-0.9,6.9-1,7.8c0,0,6.2-3.3,6.9-3.6c0,0.3-3.1,8.6-3.1,8.6c1.1,0.8,2.2,1.6,3.3,2.4c0.7,0.5,1.4,1.1,1.5,2
		c0,0.2,0.2,0.5,0.3,0.7c0.2,0.4,0.4,0.8,0.7,1.1c0.4,0.4,1,0.7,1.5,0.9c1.1,0.5,2.2,1,3.3,1.4c0.9,0.4,1.9,0.6,2.9,0.9
		c0.2,0.1,0.5,0.3,0.4,0.4c-0.1,0.8-0.1,1.7-0.7,2.3c-0.6,0.7-1.2,1.3-1.9,2c-1.2,1.1-2.5,1.3-4,0.8c-0.2-0.1-0.7,0-0.8,0.1
		c0.7,0.2,1.3,0.5,2,0.6c0.4,0.1,0.4,0.2,0.3,0.5c-0.3,0.6-1.3,1-1.9,0.8c-5.6-1.9-9.6,0.7-10.4,1.3c-2.7,2.1-4.3,6.5-3.7,10.8
		c1.4,0.2,2.9,0.3,4.3,0.3c19,0,34.4-15.4,34.4-34.4C69.8,16,54.4,0.6,35.4,0.6z M15.1,16.2C14,18.9,14.8,22,17,23.8
		c-0.6-0.1-1.3-0.2-1.9-0.5c-3.4-1.4-5-5.2-3.6-8.6c1.4-3.4,5.2-5,8.6-3.6c0.6,0.3,1.2,0.6,1.7,1C19,11.9,16.2,13.5,15.1,16.2z
		 M24.5,7.5l-0.2,1.3l-0.6-1.2l-1.3,0.2l0.9-0.9l-0.6-1.2l1.2,0.6l0.9-0.9l-0.2,1.3l1.2,0.6L24.5,7.5z M32.1,13.6l-0.2,1.6l-0.7-1.4
		L29.6,14l1.1-1.1L30,11.5l1.4,0.7l1.1-1.1l-0.2,1.6l1.4,0.7L32.1,13.6z M35.8,5.7l-0.2,1.3L35,5.9l-1.3,0.2l0.9-0.9L34,3.9l1.2,0.6
		l0.9-0.9L36,4.9l1.2,0.6L35.8,5.7z M45.9,10.8L45,9l-2,0.3l1.4-1.4l-0.9-1.8l1.8,0.9l1.4-1.4l-0.3,2l1.8,0.9l-2,0.3L45.9,10.8z
		 M48.6,17.6l-0.2,1.3l-0.6-1.2l-1.3,0.2l0.9-0.9l-0.6-1.2l1.2,0.6l0.9-0.9l-0.2,1.3l1.2,0.6L48.6,17.6z M56.8,14.2l-0.2,1.6
		l-0.7-1.4l-1.6,0.2l1.1-1.1l-0.7-1.4l1.4,0.7l1.1-1.1L57,13.2l1.4,0.7L56.8,14.2z M61.5,25.4l-0.8-1.5L59,24.2l1.2-1.2l-0.8-1.5
		l1.5,0.8l1.2-1.2l-0.3,1.7l1.5,0.8l-1.7,0.3L61.5,25.4z"/>
	<g id="XMLID_12_">
		<g id="XMLID_13_">
			<path id="XMLID_14_" class="st1" d="M73.4,11.3h0.2c0.1,0,0.1,0.1,0.1,0.2c-0.1,0.1-0.1,0.2-0.2,0.2h-0.2c0-0.1,0-0.1-0.1-0.2
				C73.4,11.4,73.4,11.4,73.4,11.3z M88.2,7.5c0.1,0.3,0.2,0.7,0.3,1.3c0.1,0,0.1,0.1,0.2,0.2L89.2,9L89.9,9
				c0.8-0.1,1.3-0.2,1.4-0.2c0.6,0,1,0.1,1.3,0.1c0.2,0.1,0.4,0.2,0.4,0.2c0,0,0.2,0,0.4-0.1c0.7,0.2,1.1,0.4,1.3,0.4
				c0.5-0.1,1.2-0.4,2.1-0.7H97c0.3,0,0.7,0.1,1.2,0.2c0.4,0,0.6-0.1,0.8-0.1c0.2,0,0.4,0.1,0.6,0.3l-0.1,0.2
				c0.1,0.1,0.2,0.1,0.3,0.1c0.5,0,1-0.1,1.3-0.1c0.3,0.1,0.4,0.2,0.5,0.2v0.1c-0.2,0.2-0.3,0.4-0.3,0.4c0.1,0,0.1,0.1,0.1,0.2
				c1.6,0,2.6,0.1,2.8,0.4l0.4-0.1h0.4c0.3,0,0.4,0.1,0.4,0.2c-0.3,0.1-0.6,0.1-0.8,0.1h-0.4c-1.5-0.1-2.4-0.1-2.5-0.1h-0.4
				c-0.5,0.2-0.8,0.3-0.9,0.3c0,0.1-0.1,0.1-0.4,0.2V11c0.1,0,0.2-0.1,0.2-0.2h-0.2c-0.3,0.3-1,0.5-2.1,0.5
				c-0.6,0.1-0.8,0.2-0.8,0.3l0.1,0.2l-0.5,0.1h-0.4c-0.5,0-1.1,0-1.8,0.1l-0.3-0.1C93.5,11.9,92.8,12,92,12c-0.6,0.4-1.3,0.6-2,0.6
				h-0.2c-0.4,0-0.6-0.1-0.8-0.1c-0.2,0.8-0.4,1.4-0.4,1.7c0,0.3,0.1,0.5,0.1,0.6c-0.1,0.9-0.3,1.6-0.6,2.1
				c-0.4,0.3-0.7,0.8-0.8,1.6c-0.1,0-0.3,0.4-0.5,1.2C86.2,20.3,86,21.1,86,22c-0.4,0.7-0.6,1.1-0.6,1.3c-0.5,0.3-0.7,0.9-0.7,1.8
				c-0.3,1.4-0.7,2.5-1.1,3.3c-0.4,2-0.7,3-1.1,3c-0.1,0.4-0.2,0.8-0.4,1c0,0.3-0.1,0.7-0.4,1v0.1c0,0.3,0,0.9,0.1,2
				c0.1,0.1,0.1,0.2,0.1,0.3c0,0.6-0.4,1.8-1.1,3.5h-0.2c0-0.1,0-0.2-0.1-0.2c-0.3,1.3-0.6,2.1-0.8,2.4h-0.1
				c-0.1-0.3-0.1-0.4-0.2-0.4c-0.2,0-0.4,0.3-0.5,1h-0.5v-0.1c0.2-0.3,0.3-0.8,0.3-1.5c0-0.4,0-0.8-0.1-1.3h0.1l0.1,0.3h0.1v-0.1
				c0-0.1,0-0.3-0.1-0.7c0.1-1.1,0.2-2.1,0.4-3h-0.1L79,35.9c0-0.1-0.1-0.1-0.1-0.2c0.1-0.3,0.3-1.1,0.4-2.2l0.9-3.7
				c0-0.5-0.1-0.8-0.1-1.1v-0.3c0-0.5,0.7-2.8,2.2-7c0-0.2,0.2-0.9,0.5-2.1c0-0.2,0.1-0.4,0.3-0.7c0-0.3,0.2-0.9,0.6-1.7
				c0-0.5,0.1-0.9,0.4-1.2c0.1-0.1,0.1-0.2,0.1-0.3c-0.1,0-0.1,0-0.1-0.1v-0.1c0.3-1,0.4-1.5,0.4-1.7H84c-1.1,0.2-1.8,0.3-2.1,0.3
				c0,0.2-0.5,0.3-1.6,0.3c-0.5-0.1-1.3-0.3-2.4-0.7c-0.8-0.1-1.3-0.4-1.3-0.8V12c-0.1,0-0.1,0-0.1-0.1C76.4,12,76.2,12,76.1,12
				L75.6,12v-0.1c0-0.1,0.3-0.1,0.8-0.2l0.2-0.2c-1.4-0.2-2.1-0.4-2.1-0.5c1.5,0,3.2-0.3,5.1-1c0.3-0.1,0.5-0.2,0.5-0.2
				C80.6,9.9,81,10,81.2,10h0.1c0.3-0.1,1.1-0.2,2.4-0.2c0.5-0.3,0.9-0.5,1.3-0.5h0.1c0.1,0,0.6,0.1,1.2,0.2h0.2
				c0.3,0,0.7-0.1,1.2-0.3l-0.1-0.1l0.1-0.3C87.6,8.9,87.7,9,87.7,9c0.2,0,0.4-0.1,0.4-0.3c0-0.5-0.1-0.8-0.1-1
				C88.1,7.6,88.2,7.5,88.2,7.5z M74.6,12.6h0.6l0.1,0.3v0.1c0,0.1-0.1,0.2-0.4,0.4c-0.2,0-0.4-0.1-0.4-0.4v-0.1
				C74.6,12.7,74.6,12.6,74.6,12.6z M77.9,10.6v0.1h0.2v-0.1H77.9z M85.3,23v0.1h0.1L85.3,23L85.3,23z M86.4,7.8h0.2
				c0,0,0.1,0.2,0.2,0.4c-0.1,0.2-0.1,0.3-0.2,0.3h-0.1c-0.2-0.1-0.3-0.2-0.4-0.4C86.1,7.9,86.2,7.8,86.4,7.8z M87.5,6.4
				c0.1,0.1,0.2,0.1,0.2,0.2v0.1c0,0.1-0.1,0.1-0.2,0.2h-0.2c0,0,0-0.1-0.1-0.2C87.4,6.5,87.5,6.4,87.5,6.4z M88.6,13.7
				c0,0.1,0,0.1-0.1,0.2h0.1l0.1-0.1C88.6,13.8,88.6,13.8,88.6,13.7L88.6,13.7z M89.6,8.4h0.1c0.1,0,0.1,0.1,0.2,0.2v0.1l-0.1,0.1
				c0,0,0.1,0,0.1,0.1l-0.1,0.1h-0.1c-0.1,0-0.1-0.1-0.2-0.2L89.6,8.4z M99.3,10.1L99.3,10.1l0.1,0.1v-0.1H99.3z"/>
			<path id="XMLID_25_" class="st1" d="M106.1,6.5c0.1,0,0.1,0,0.1,0.1v0.2c-0.2,0.7-0.4,1.5-0.4,2.6v1c0.2,0.1,0.2,0.2,0.2,0.4
				c0,0-0.1,0.2-0.2,0.7v0.3c0,0.5-0.1,1.4-0.3,2.8c0,0.5,0.1,1,0.1,1.4c0,0.4-0.6,1.8-1.7,4.1v0.5l0.1,0.4c-0.1,1-0.4,1.6-0.6,1.6
				c-0.3,0.1-0.4,0.4-0.4,0.6h0.3c0.2,0,0.2,0.2,0.2,0.5h0.3c0.1,0.3,0.1,0.4,0.1,0.5v0.2c-0.2,0.1-0.4,0.1-0.5,0.1h-0.3
				c0-0.1,0-0.1-0.1-0.2v-0.2l0.1-0.1h-0.2c-0.1,0-0.2,0.4-0.3,1.1c0.3,0,0.6,0.2,0.8,0.5c0,0.1-0.2,0.1-0.6,0.1v0.1
				c0.3,0,0.8,0,1.3,0.1v0.2c0,0.1-0.6,0.3-1.9,0.5c-0.3,0.5-0.6,1.4-0.9,2.6c-0.7,0.7-1.1,1.2-1.1,1.6c-0.1,0.7-0.2,1.1-0.2,1.2
				c0.1,0.3,0.2,0.5,0.2,0.8l-0.7,1.8c0,0.5-0.3,0.9-0.8,1.1c-0.2,0.1-0.4,0.7-0.6,1.7c-0.2,0.3-0.3,0.5-0.4,0.5
				c-0.1,0-0.2-0.3-0.2-0.8c-0.3,0-0.4,0.2-0.4,0.6l-1.3,2.9c-0.1,0.6-0.2,0.9-0.5,0.9l-0.1-0.1v-0.1c0.2-1,0.5-2.3,1-3.8
				c0-0.2-0.1-0.4-0.1-0.5c0.2-0.6,0.2-0.9,0.2-0.9v-0.1c0-0.1-0.1-0.4-0.2-0.8V35c0.3-1.5,0.5-2.4,0.5-2.5h-0.1l-0.2,0.1h-0.1
				c-0.1,0-0.1,0-0.1-0.1c0.2-0.8,0.7-2.4,1.5-4.8c0.1-0.1,0.2-0.4,0.2-0.8v-0.1c0-0.3-0.2-0.5-0.5-0.5c-0.3,0.2-0.7,0.3-1,0.3h-0.2
				c-0.1-0.3-0.3-0.5-0.5-0.5l-1.1,0.3h-0.2c-0.1,0-0.4-0.1-1-0.3c0,0.4-0.2,0.9-0.5,1.6c-0.5,1.7-0.9,2.5-1.3,2.5
				c-0.2,0.2-0.4,0.7-0.6,1.6c0,0.2-0.1,0.4-0.1,0.6c0.1,0.4,0.2,0.6,0.2,0.8c-0.4,1.1-0.6,1.7-0.6,1.9C90.2,35.7,90,36,89.6,36
				c-0.1,0.1-0.3,0.7-0.5,1.7c-0.2,0.3-0.4,0.4-0.4,0.4h-0.1l-0.1-0.4v-0.3h-0.2c0,0.5-0.5,1.4-1.6,2.8c-0.2,0.6-0.4,0.9-0.6,0.9
				v-0.1c0-0.5,0.4-1.3,1.2-2.6c0-0.2,0.1-1,0.2-2.3c-0.2-0.3-0.3-0.5-0.3-0.6c0.2-0.7,0.3-1.2,0.3-1.7c0-0.5,0.1-0.7,0.1-0.8h-0.1
				c-0.1,0.1-0.2,0.1-0.2,0.1h-0.1l-0.1-0.1c0.6-2.5,1.1-4.3,1.6-5.4v-0.3c0-0.1-0.1-0.3-0.2-0.4c0.3-1,0.4-1.5,0.4-1.6
				c-0.9-0.2-1.4-0.4-1.4-0.6v-0.1c0.3-0.1,0.5-0.2,0.5-0.4l-2.5-1.1c-0.5,0-0.8-0.2-0.9-0.5l0.1-0.1c0.9,0.2,1.4,0.3,1.5,0.3
				c0.1-0.2,0.2-0.3,0.4-0.3h0.1c0.3,0,0.5,0.1,0.5,0.4c0,0.2,0.2,0.3,0.6,0.3H88c0.1,0,0.2-0.3,0.2-0.8c-0.4-0.1-0.6-0.3-0.6-0.5
				c0.3-0.1,0.4-0.1,0.4-0.2c0-0.1-0.5-0.3-1.3-0.6l-0.1-0.2c0.1-0.1,0.2-0.1,0.3-0.1c0.9,0.1,1.5,0.2,1.9,0.2h0.5
				c0.5-0.2,0.8-0.3,0.9-0.3v0.1c0.1,0,0.2-0.1,0.3-0.2l-0.1-0.3c0-0.2,0.2-0.7,0.5-1.5c0-0.3,0.1-0.6,0.3-1c0-1.3,0.4-2.2,1.3-2.8
				c0.3-0.3,0.8-1,1.5-2.1c0,0,0.1,0,0.3-0.1c0.3,0.1,0.6,0.2,0.8,0.2c0.1-0.5,0.3-0.8,0.6-0.8c0.1,0.4,0.1,0.6,0.1,0.7H96
				c0.4-1.1,0.8-1.6,1-1.6l0.1,0.1v0.2c-0.3,1.3-0.5,2.4-0.6,3.5c0.1,0.5,0.1,0.9,0.1,1.2v0.3c0,0.4-0.4,1.4-1.3,3
				c-0.4,0.7-0.5,1.4-0.5,2.2c0.6,0,1-0.2,1.3-0.5c1.4,0.1,2.1,0.2,2.1,0.4h0.1c0-0.3,0.2-0.5,0.5-0.5c0.4,0,0.6-0.2,0.6-0.5
				c0-0.1,0-0.2,0.1-0.4c0-0.3-0.1-0.5-0.1-0.6v-0.3c0,0,0.1-0.3,0.2-0.8l-0.1-0.2v-0.2c0.3-1.2,0.5-2,0.5-2.3h-0.3
				c0-0.1,0-0.2-0.1-0.3c0-0.8,0.2-1.2,0.6-1.2c0.4-0.3,0.6-0.9,0.6-1.8c-0.1-0.1-0.1-0.2-0.1-0.3v-0.1l0.3-1.4v-0.9
				c0-0.3,0.4-0.8,1.3-1.3c0.2-0.4,0.5-0.8,1.1-1h0.1c0.3,0,0.6,0.1,0.9,0.2c0.1-0.4,0.3-0.5,0.6-0.5c0.1,0.2,0.1,0.4,0.2,0.5
				c0.1,0,0.3-0.3,0.4-0.8C105.8,6.7,106,6.5,106.1,6.5z M85.6,21.3h0.2l0.1,0.3v0.1c0,0.1,0,0.1-0.1,0.1h-0.3c0-0.1,0-0.2-0.1-0.2
				C85.4,21.4,85.5,21.3,85.6,21.3z M87.4,32.9V33h0.1L87.4,32.9L87.4,32.9z M88.8,37.8V38h0.1L88.8,37.8L88.8,37.8z M94.9,11.1
				c0.3,0,0.5,0.2,0.5,0.5c0,0.3-0.2,0.5-0.5,0.5c-0.2-0.2-0.4-0.4-0.4-0.7C94.7,11.2,94.8,11.1,94.9,11.1z M96.4,32.2v0.1h0.1
				L96.4,32.2L96.4,32.2z M96.7,10.3h0.2c0,0.1,0,0.1,0.1,0.1c0,0.2-0.1,0.3-0.2,0.4h-0.2c0-0.1,0-0.1-0.1-0.2v-0.1
				C96.5,10.4,96.6,10.4,96.7,10.3z M97.7,37.3v0.1h0.1v-0.1H97.7z M103.7,6h0.2c0.3,0,0.5,0.1,0.5,0.2v0.2c0,0.4-0.2,0.5-0.5,0.5
				h-0.1c-0.2-0.3-0.3-0.5-0.3-0.6C103.7,6.1,103.7,6,103.7,6z M104.3,24.7h0.3l0.1,0.3v0.1l-0.3,0.1h-0.1l-0.1-0.3v-0.1
				C104.1,24.8,104.2,24.7,104.3,24.7z M104.9,25h0.2c0.1,0,0.2,0.1,0.2,0.2c0,0.1-0.1,0.2-0.2,0.3c-0.2-0.1-0.3-0.2-0.3-0.2v-0.1
				C104.8,25.1,104.8,25.1,104.9,25z M104.8,17.6v0.1c0.1,0,0.1,0,0.1-0.1H104.8z M105.7,5.2h0.2c0.1,0,0.1,0.1,0.2,0.2v0.2
				c-0.1,0-0.1,0-0.2,0.1h-0.2c0-0.1,0-0.2-0.1-0.2C105.7,5.3,105.7,5.2,105.7,5.2z"/>
			<path id="XMLID_39_" class="st1" d="M97.2,30.5h0.2c0.1,0,0.1,0,0.1,0.1v0.1c0,0.1-0.1,0.1-0.2,0.2h-0.2V30.5z M112.6,9.8
				L112.6,9.8c0.1,0,0.2,0,0.2,0.1V10c-0.1,0.3-0.1,0.5-0.1,0.6v0.2c0,0.1,0.1,0.2,0.3,0.2l0.4-0.3c0.1,0,0.2,0,0.4,0.1
				c0.4,0,0.6-0.1,0.8-0.1h0.1l1.7,0.5c0,0.1,0,0.1,0.1,0.1h0.2c0.1-0.1,0.4-0.3,0.9-0.5c0-0.1,0.1-0.2,0.3-0.2
				c1.2,0,1.8,0.1,1.8,0.3l0.1,0.1c-0.1,0-0.1,0-0.1,0.1c0.3,0,0.4,0.1,0.4,0.1l0.3-0.1h0.4c0.2,0,0.3,0.1,0.4,0.3
				c-0.1,0-0.1,0.1-0.3,0.2c0.1,0.1,0.1,0.2,0.1,0.3h0.7c1.4,0.2,2.2,0.3,2.3,0.3v0.1l-0.4,0.1h-2c-0.6,0-1,0.1-1.4,0.4l-0.2-0.1
				H120c0,0.3-0.5,0.5-1.6,0.6c-0.1,0.1-0.2,0.2-0.2,0.2c0,0.1,0.1,0.1,0.1,0.2h-0.2l-0.4,0.1c-0.2,0-0.8,0-1.5-0.1
				c-1,0-1.6,0.2-1.8,0.5c-0.3,0.1-0.6,0.2-1,0.2h-0.3c-0.4,0.5-0.6,1-0.6,1.6c0,0.2-0.2,0.5-0.6,0.8c0,0.4-0.3,0.9-0.8,1.6
				c-0.2,0.4-0.3,0.7-0.3,1v0.4c0.7,0.2,1.1,0.4,1.2,0.4h0.3c0-0.1,0.2-0.3,0.6-0.4l0.1-0.3h0.9l0.6-0.1c0.2,0.3,0.3,0.4,0.5,0.4
				c0.2-0.1,0.4-0.1,0.5-0.1h0.1c0.2,0,0.3,0.1,0.3,0.2v0.1l-0.1,0.2v0.1c0,0.1,0.7,0.2,2.1,0.3c0,0,0,0.1,0.1,0.1
				c0.2,0,0.4-0.1,0.5-0.1h0.4v0.1c-1.7,0.2-2.6,0.3-3,0.4c0,0.1-0.2,0.2-0.6,0.3c0,0.2-0.3,0.4-0.8,0.5c-0.5,0.1-0.8,0.2-0.9,0.4
				c0,0.1,0.1,0.1,0.1,0.2c-0.2,0.1-0.4,0.2-0.7,0.2h-0.1c-0.2,0-0.5,0-0.7-0.1c-1.2,0.1-1.8,0.3-1.8,0.5l-0.4,0.1l-0.1-0.1
				c-0.4,0-0.7,0.2-0.8,0.5c0,0.1-0.2,0.5-0.7,1.4c-0.3,1-0.6,1.5-1,1.8c-0.1,0-0.2,0.2-0.2,0.5c-0.2,0-0.4,0.2-0.6,0.7
				c-0.1,0-0.2,0.1-0.3,0.4l0.1,0.3v0.4c1.2-0.1,1.8-0.2,1.8-0.4c0.2-0.1,0.4-0.2,0.6-0.2c0.1,0,0.3,0,0.6,0.1c0,0.1,0,0.2,0.1,0.2
				v-0.1c0,0,0.2,0,0.4,0.1c0.1,0,1-0.3,2.6-0.8l3-0.5l2.8,0.3h0.2c0.1-0.2,0.5-0.4,1.3-0.5c0.1-0.2,0.4-0.4,0.9-0.4h0.5
				c1.3,0,2,0.1,2,0.4c-0.1,0-0.1,0-0.1,0.1c0.1,0,0.2,0,0.4,0.1c0.5,0,0.8-0.1,1.1-0.1c0.3,0,0.5,0.1,0.6,0.3l-0.3,0.3v0.1
				c0,0.1,0.2,0.2,0.6,0.3c0.6,0,0.9-0.1,1-0.1c0.6,0,1.1,0.1,1.5,0.4h0.1c0.4,0,0.6-0.1,0.8-0.1l0.1,0.1c-0.3,0-0.4,0.1-0.4,0.1
				c-0.2,0-0.3-0.1-0.4-0.1c-0.7,0-1.5,0-2.3-0.1c-0.4,0-0.8,0.1-1.2,0.1c-0.5,0.2-0.8,0.4-0.9,0.4h-0.1v-0.1c0.1,0,0.2-0.1,0.2-0.2
				h-0.2c0,0.2-1,0.4-2.9,0.7v0.1c0.1,0,0.2,0,0.2,0.1v0.1c-0.7,0-2.2,0.2-4.4,0.5c-0.5,0-0.7,0.1-0.7,0.3c-0.8,0.4-1.6,0.6-2.3,0.6
				l-0.4-0.1c-2.1,0.4-3.5,0.7-4.2,0.9c0,0-0.4,0.1-1.1,0.3c-0.5,0.2-0.8,0.3-1,0.3h-0.6c-0.1,0-0.3,0.1-0.4,0.3h-0.7
				c-0.5,0-0.7,0.2-0.7,0.5l-0.4,0.4h-0.1c-0.1,0-0.1-0.1-0.1-0.3h-0.1c-0.3,0-0.5,0.5-0.7,1.4l-0.6,1c-0.1,0-0.3,0.4-0.4,1.1
				l-0.1,0.1h-0.1v-0.2c0.3-0.9,0.6-1.9,1.1-3.1c0-0.2,0.1-0.4,0.1-0.5v-0.5c-1.4-0.2-2.2-0.5-2.2-0.7c-0.1,0-0.1-0.1-0.2-0.2v-0.4
				c0-0.2-0.1-0.3-0.2-0.4l-0.3,0.1h-0.6v-0.1c0-0.1,0.3-0.1,0.8-0.3c0-0.1,0.1-0.1,0.2-0.1v-0.1c-0.9-0.1-1.6-0.2-2.1-0.4v-0.1
				c1.4,0,3-0.4,4.9-1.2c0.3-1,0.8-1.9,1.3-2.9c0.1-0.4,0.3-0.9,0.6-1.5v-0.9c0.2-0.6,0.4-1,0.4-1.1v-0.1c0-0.1-0.4-0.5-1-1.1v-0.2
				c0-0.2,0-0.5,0.1-0.9c-0.3-0.1-0.4-0.2-0.4-0.3v-0.1h0.4c0-0.1,0-0.1,0.1-0.2c-0.2-0.3-0.7-0.6-1.3-0.8v-0.2h0.3
				c0.3,0.2,0.9,0.4,1.8,0.4c0.2,0,0.7,0,1.5-0.1c0.2-0.6,0.4-1,0.4-1.3v-0.1h-0.1c-0.3,0.3-0.5,0.5-0.6,0.5v-0.2
				c0.9-0.9,1.3-1.8,1.3-2.6h-0.5c0,0,0-0.1-0.1-0.1c-0.4,0-0.8-0.1-1.3-0.4c-0.9-0.1-1.3-0.4-1.3-0.9c-0.1-0.3-0.1-0.4-0.1-0.5
				h-0.2c-0.1,0-0.1,0-0.2,0.1c-0.1,0-0.1-0.1-0.2-0.1v-0.1c0.4-0.2,0.6-0.4,0.6-0.4c-0.5-0.1-0.9-0.2-1.1-0.2h-0.4l-0.3-0.1
				c0-0.1,0.3-0.2,0.9-0.2c0-0.1,0.3-0.2,1-0.3c1-0.6,1.7-0.9,2.2-0.9c0.2,0,0.4,0.1,0.6,0.2c1.1,0,1.8-0.2,2.1-0.5
				c0.3-0.2,0.5-0.4,0.5-0.6h0.4l0.3,0.5h0.2c0.1-0.6,0.4-0.8,0.6-0.8c0.1,0.1,0.3,0.2,0.4,0.2l-0.1-0.1V9.9
				C112.3,9.8,112.5,9.8,112.6,9.8z M98.4,31.7h0.2c0.3,0,0.4,0.1,0.4,0.2V32c-0.1,0.2-0.3,0.3-0.5,0.3h-0.2c0-0.1,0-0.2-0.1-0.4
				C98.4,31.8,98.4,31.8,98.4,31.7z M101.7,29.6L101.7,29.6l0.3,0.1v-0.1c-0.1,0-0.1,0-0.1-0.1C101.8,29.6,101.7,29.6,101.7,29.6z
				 M102,13.3h0.1c0.1,0,0.1,0,0.1,0.1v0.2c0,0.1,0,0.1-0.1,0.1h-0.2l-0.1-0.3C101.9,13.3,101.9,13.3,102,13.3z M102,18.9h0.1
				c0.1,0,0.1,0.1,0.2,0.2v0.1c0,0.1,0,0.1-0.1,0.1h-0.1c-0.1,0-0.1,0-0.1-0.1L102,18.9z M102.8,20.4c0.4,0,0.6,0.1,0.6,0.4
				c0,0-0.1,0.1-0.4,0.3c-0.2,0-0.4-0.1-0.4-0.3L102.8,20.4z M103.6,14.3c0.2,0,0.3,0.1,0.3,0.2v0.2c-0.1,0.2-0.3,0.4-0.5,0.4h-0.1
				c-0.1,0-0.1-0.1-0.2-0.3C103.2,14.4,103.4,14.3,103.6,14.3z M105.5,12.2c0,0,0,0.1-0.1,0.2h0.1c0,0,0-0.1,0.1-0.2H105.5z
				 M105.5,19.4c0,0.1,0,0.1,0.1,0.1v-0.1H105.5z M109.8,22.6L109.8,22.6L109.8,22.6c0.1,0,0.2,0,0.2,0v-0.1H110
				C109.9,22.6,109.8,22.6,109.8,22.6z M109.9,31.5L109.9,31.5l0.1,0.1v-0.1H109.9z M110.5,9.3h0.3c0.2,0.2,0.4,0.4,0.4,0.6
				l-0.2,0.4c-0.4,0-0.6-0.2-0.7-0.7V9.4C110.4,9.4,110.4,9.3,110.5,9.3z M111.3,10.8v0.1h0.1v-0.1H111.3z M112.4,8.6h0.2
				c0,0.1,0,0.1,0.1,0.2v0.2L112.4,9h-0.1c0-0.1,0-0.1-0.1-0.2C112.3,8.6,112.3,8.6,112.4,8.6z M113.1,9.4L113.1,9.4
				c0.1,0,0.2,0.1,0.2,0.2v0.1c0,0.1,0,0.1-0.1,0.1h-0.1c-0.1,0-0.1,0-0.1-0.1V9.5C113,9.4,113.1,9.4,113.1,9.4z M115.3,21.2
				L115.3,21.2l0.1,0.1h-0.1V21.2z M120.2,12.7L120.2,12.7L120.2,12.7c0.1,0.1,0,0.2-0.1,0.2h-0.1v-0.1
				C120.1,12.7,120.1,12.7,120.2,12.7z M122.6,27.9L122.6,27.9l0.2,0.1v-0.1H122.6z"/>
			<path id="XMLID_59_" class="st1" d="M152,5.9h0.1v0.1c0,0.5-0.4,1.6-1.3,3.5c0,0.5-0.2,1.1-0.5,1.8c0,0.3,0.1,0.5,0.1,0.6v0.2
				c0,0.1-0.2,0.5-0.6,1.4l-0.4,1.3h0.1l0.2-0.1h0.2v0.1c-1.1,2.7-1.8,4.7-2.2,5.8c0,0.2-0.1,0.4-0.1,0.5c0,0.1,0.1,0.2,0.2,0.5
				c-0.3,1.1-0.9,2.6-1.7,4.5c-0.5,1.5-0.8,2.5-0.8,3c0,0.3-0.2,0.8-0.6,1.6c0,0.4-0.2,0.8-0.5,1.5c-0.3,1.8-0.6,2.7-0.9,2.7
				c-0.2,0.2-0.5,0.6-0.9,1.2c-0.3,0.1-0.8,0.6-1.4,1.5c-0.4,0.4-0.7,0.6-0.9,0.6v0.2c0,0.2-0.1,0.3-0.2,0.3c-0.1,0-0.2-0.3-0.2-0.9
				l-0.1-0.1h-0.2c0,0.3-0.2,0.6-0.7,0.9l-0.1-0.3v-0.2c0,0,0-0.2,0.1-0.5c0,0-0.1,0-0.1-0.1c-0.1,0-0.3,0.3-0.6,0.9
				c-0.4,0.5-0.6,0.8-0.8,0.8l-0.1-0.1V39c0.5-0.6,0.9-2,1.4-4.2c0-0.5,0.1-1.1,0.3-1.9v-0.4c0-0.2,0-0.3-0.1-0.5l-0.3,0.1h-0.1
				c-0.1-0.5-0.2-1.7-0.4-3.5v-0.4c0-0.3-0.1-0.5-0.4-0.5l-2.7,7c-0.6,0.8-1.3,1.2-2,1.2h-0.1c-1.2,0-2-0.8-2.4-2.5
				c-0.1-0.5-0.1-1-0.1-1.4v-3.4c-0.1-1.4-0.2-2.3-0.2-2.6c0-0.3,0-1.5,0.1-3.4c-0.1-1-0.1-1.9-0.1-2.8c0-0.8,0.5-2.4,1.6-4.8
				c0.4-1.9,0.9-2.9,1.5-2.9c0.1,0.1,0.3,0.1,0.5,0.1c0.1-0.1,0.2-0.3,0.2-0.6c0-0.1-0.1-0.4-0.2-1.1c0-0.1,0-0.1,0.1-0.1h0.2
				l0.5,1.2h0.1v-0.4c-0.3-0.9-0.4-1.5-0.4-1.7c0-0.3,0.1-0.4,0.2-0.4h0.1c0.1,0,0.2,0.3,0.4,0.9c0.5,0.7,0.8,1.4,0.8,2
				c-0.1,1-0.2,2.4-0.3,4.2c0.1,0.2,0.1,0.4,0.1,0.6v0.2c0,0.7-0.2,2.2-0.5,4.4c-0.4,0.8-0.6,1.8-0.6,3.1c-0.1,0.3-0.2,0.7-0.2,1.1
				c0.1,1.3,0.2,2,0.2,2.2h0.1v-0.1c0-1.4,0.3-2.6,1-3.5c0.4-0.7,0.6-1.5,0.9-2.3c0.2-0.4,0.6-0.9,1.2-1.5v-0.2
				c-0.1-0.7-0.2-1.1-0.2-1.2c0-0.1,0.2-0.4,0.5-0.8c0-0.3,0.3-0.6,0.7-1c0-0.4,0.3-0.9,0.9-1.3h0.2l0.6,0.1c0-0.3,0.2-0.6,0.6-0.9
				c0.3-0.9,0.6-1.4,0.8-1.6c0.2-0.6,0.4-0.9,0.5-0.9h0.1v0.1c0,0.3-0.2,0.7-0.5,1.3c0,0.3,0.1,0.5,0.1,0.6c0,0.2,0,0.6-0.1,1.3
				c0,0.3,0.1,1.2,0.4,2.7v0.3c0,0.3-0.2,1.1-0.6,2.3v0.3l0.2,1.7v0.2c-0.2,0-0.3,0.2-0.4,0.7v0.1c0.2,0.7,0.3,1.4,0.3,2.3v0.2h0.1
				c0-0.2,0.2-0.4,0.7-0.6c0.2-0.3,0.3-0.8,0.4-1.6c0.5-1.2,0.7-2.1,0.7-2.6c0.4-0.6,0.8-1.5,1.2-3c0.9-1.1,1.3-1.7,1.3-1.9
				c0.1-0.4,0.3-1,0.5-1.9c-0.1-0.3-0.1-0.5-0.1-0.6c0-0.1,0.4-0.8,1.2-2.2c0-0.4,0.3-0.7,1-1c0.1-0.1,0.4-0.8,1-2l0.3-0.2h0.1v0.5
				l-0.1,0.3h0.2c0.4-0.9,1-2.1,1.8-3.4C151.8,6.1,151.9,5.9,152,5.9z M132.5,9.4c0.3,0,0.4,0.2,0.4,0.7c-0.1,0.1-0.3,0.2-0.4,0.2
				h-0.1c-0.2-0.1-0.3-0.3-0.3-0.5V9.6C132,9.5,132.2,9.4,132.5,9.4z M133.5,7.9h0.3l0.1,0.3l-0.2,0.2h-0.2c0-0.1,0-0.1-0.1-0.2
				C133.4,8,133.4,7.9,133.5,7.9z M134.5,20.9V21h0.1L134.5,20.9L134.5,20.9z M137.1,40.1h0.2c0.1,0,0.1,0.1,0.2,0.2v0.2l-0.3,0.1
				h-0.2c0,0,0-0.1-0.1-0.2C137.1,40.2,137.1,40.2,137.1,40.1z M139.1,39.2h0.1c0.3,0,0.5,0.2,0.5,0.7c-0.1,0.2-0.3,0.3-0.4,0.3
				c-0.2,0-0.4-0.1-0.5-0.3v-0.2C139,39.4,139.1,39.3,139.1,39.2z M139.2,14.1h0.5l0.1,0.4v0.2c-0.1,0.2-0.3,0.3-0.5,0.3h-0.1
				c-0.2-0.3-0.3-0.5-0.3-0.6v-0.2C139,14.2,139.1,14.1,139.2,14.1z M141,13h0.2c0.1,0,0.1,0,0.1,0.1v0.3l-0.3,0.1h-0.1
				c0-0.1,0-0.2-0.1-0.2C140.9,13.1,140.9,13,141,13z M149.5,9.3v0.1h0.1V9.3H149.5z M149.5,15L149.5,15l0.1,0.1V15H149.5z"/>
			<path id="XMLID_70_" class="st1" d="M157.2,10.5h0.2c0.3,0.3,0.6,0.4,0.8,0.4h0.6c0.3,0,0.8,0.4,1.6,1.1h0.1
				c0.2-0.1,0.4-0.1,0.5-0.1c0.2,0,0.4,0.1,0.5,0.3c0,0.1-0.1,0.3-0.4,0.8c0.5,0.8,0.8,1.3,0.8,1.7v0.1l-0.3,0.1h-0.1
				c-0.2,0-0.3,0-0.5-0.1c-0.2,0.1-0.3,0.2-0.3,0.3c0.4,0.4,0.8,0.6,1,0.6c0-0.1,0.1-0.2,0.2-0.2h0.3c0.4,0.1,0.5,0.2,0.5,0.5
				c0,0.1-0.1,0.2-0.4,0.5c0.8,0.6,1.2,1.8,1.2,3.7c0.3,0.4,0.4,0.7,0.4,0.9c-0.2,0.9-0.4,1.9-0.5,2.7c-0.1,0.3-0.3,0.8-0.3,1.5
				l0.3-0.3h0.1v0.1c0,1-0.9,2.6-2.6,4.9c-1.4,1.5-2.6,2.4-3.4,2.7c-1.5,0.8-2.4,1.2-2.7,1.3c-0.3,0-0.5,0-0.5,0.1
				c-1,0-2.1-0.4-3.5-1.2c-1.9-1.5-2.9-3.7-2.9-6.6v-0.3c0-0.2,0-0.5,0.1-0.8v-0.1h-0.1c-0.2,0.8-0.4,1.2-0.5,1.2l-0.1-0.2v-0.5
				l0.5-2.4c0.1-0.9,0.1-1.4,0.2-1.4v-0.3c-0.2-0.3-0.3-0.5-0.4-0.5c0.4-1.2,0.5-1.8,0.5-1.9h-0.3c-0.1,0-0.1,0-0.1-0.1v-0.1
				c0.4-1,1.1-2,1.8-3c0.5-0.4,0.8-0.7,0.8-0.9l-0.1-0.2c0.3-0.5,0.9-1.1,1.9-1.7c0.3-0.4,1-0.7,2.3-1.2c0.4-0.5,1.2-0.8,2.3-0.8
				v-0.3c0-0.1,0.1-0.1,0.2-0.1v-0.1L157.2,10.5z M160.3,15.6l-0.1,0.1l0.6,0.6v0.2c-0.1,0-0.2,0.1-0.2,0.1v0.1
				c0.2,0.2,0.2,0.4,0.2,0.6v0.3h-0.2c-0.4-0.6-0.8-1.1-1.2-1.5c-0.5,0.1-0.8,0.1-1,0.1c-0.1,0-0.4-0.1-0.9-0.4
				c0,0.3-0.5,1.1-1.5,2.4c-0.3,0.7-0.9,1.4-1.8,2.2c-0.8,1.2-1.2,2.3-1.2,3.2c-0.1,1.5-0.2,2.3-0.5,2.3l-0.3,0.4
				c0.1,0.1,0.1,0.5,0.2,1.2c0.4,1.1,0.9,1.6,1.5,1.6c0.4,0.2,0.8,0.3,1.2,0.3c0.1,0,0.8-0.2,1.9-0.6c0.6,0,1-0.2,1.3-0.6
				c0.4-0.3,0.8-0.9,1.2-1.7c0.1-1,0.2-1.7,0.5-2c0.6-1.2,0.9-2.1,0.9-2.7c0.1-0.3,0.3-0.5,0.6-0.8c0.2-0.3,0.2-0.7,0.2-1
				c0-0.4-0.1-1-0.2-1.9c0-0.1,0.1-0.1,0.1-0.2h0.2c0,0,0.2,0.2,0.5,0.5h0.1c0.1,0,0.1,0,0.1-0.1c-0.3-0.8-0.9-1.6-1.7-2.2
				C160.6,15.7,160.4,15.6,160.3,15.6z M155,19v0.1c0.1,0,0.1,0,0.1-0.1H155z M163.3,25.5v0.1h0.1L163.3,25.5L163.3,25.5z"/>
			<path id="XMLID_75_" class="st1" d="M160,31.2c0.4,0,0.5,0.2,0.5,0.5v0.2c-0.3,0.2-0.5,0.2-0.6,0.2c-0.2-0.1-0.4-0.2-0.4-0.4
				C159.6,31.4,159.8,31.2,160,31.2z M170.4,8.4h0.2c0.6,1.4,0.8,2.6,0.8,3.7V13c0,0.7-0.3,1.4-0.8,2.3h-0.1v-0.2h-0.1
				c0,0,0,0.1-0.1,0.2h0.1c-0.7,1-1.1,2-1.1,3c0,0.3-0.2,0.6-0.7,0.9c-0.2,0-0.4,0.4-0.4,1.3c-0.2,0.6-0.4,1.2-0.5,2
				c-0.2,0.3-0.3,0.7-0.3,1c0.1,0,0.1,0.1,0.2,0.3c0,0.4-0.2,1.5-0.7,3.2c0.1,0.5,0.1,0.8,0.1,1l-0.3,1.2l0.1-0.1h0.5
				c0,0.2,0.2,0.3,0.5,0.4c0.8-0.4,1.7-0.6,2.5-0.6h0.7c0.1,0,0.6,0.2,1.3,0.5h0.1c0.9,0,1.3-0.2,1.3-0.6l0.3-0.1
				c1.2,0,1.9,0.2,2.1,0.5c0,0.2,0.2,0.2,0.7,0.2h0.4c0.2,0,0.4,0.1,0.4,0.3v0.1c0,0.1-0.2,0.2-0.5,0.3c0,0.2,0.9,0.6,2.7,1.1
				c0.4,0,0.6,0.1,0.6,0.3v0.1c0,0-0.1,0-0.2,0.1c-0.6,0-1.5-0.1-2.8-0.4h-0.1c0,0.1,0,0.1-0.1,0.1h-0.7l-0.4,0.5h-0.6
				c-0.1,0-0.4,0.1-1,0.3v0.1l0.1,0.2v0.2c-2.1,0.1-3.3,0.2-3.8,0.2c-0.1,0.4-0.7,0.6-1.6,0.6c-1.4,0-2.3,0.2-2.5,0.5
				c-0.4,0-0.8,0.1-1.1,0.3h-0.1l-0.4-0.1c-0.2,0.3-0.6,0.4-1.1,0.4h-0.1c-0.2,0-0.5-0.1-0.9-0.3c0,0.4-0.1,0.6-0.4,0.6
				c-0.2,0-0.4-0.2-0.4-0.5c0-0.1,0.1-0.3,0.2-0.5c-0.3-0.2-0.5-0.4-0.8-0.4c-0.2,0.4-0.4,0.6-0.4,0.7h-0.1c-0.1,0-0.1,0-0.1-0.1
				c0-0.1,0.1-0.3,0.2-0.5h-0.1c-0.1,0.2-0.3,0.3-0.5,0.3v-0.2c0.2-0.6,0.4-0.9,0.4-1c0-0.5,0.1-0.8,0.2-1c-0.3-0.2-0.5-0.4-0.5-0.6
				c0.3-0.1,0.5-0.2,0.5-0.3c-0.8-0.3-1.3-0.6-1.5-0.9v-0.2h0.4c0.6,0.2,1,0.3,1.3,0.3h0.2c0.1-0.1,0.2-0.4,0.4-1
				c0.4-0.3,0.6-0.7,0.6-1.4h-0.1l-0.2,0.1h-0.1v-0.2c0-0.3,0.2-1.3,0.7-2.8c0-0.2,0.2-0.9,0.5-2c0,0-0.1-0.2-0.3-0.4v-0.2
				c0.1-0.6,0.4-1.4,0.9-2.5c0-0.2,0.2-1,0.7-2.3l-0.1-0.7c0.3-0.5,0.4-1,0.4-1.5c0.2,0,0.3-0.5,0.3-1.4c0.2-0.7,0.5-1.1,0.8-1.1
				c0.3-0.2,0.6-0.4,0.9-0.4c0-0.3,0.4-0.7,1.3-1.3c0.4,0,0.6-0.1,0.6-0.2c0-0.1,0-0.3,0.1-0.7h0.1l0.6,0.4l0.1-0.6l-0.1-0.4V8.5
				C170.3,8.4,170.4,8.4,170.4,8.4z M161.2,34.6h0.2c0,0,0.1,0.1,0.2,0.2c-0.1,0.2-0.2,0.3-0.2,0.3h-0.1c-0.1,0-0.2-0.1-0.2-0.3
				C161.1,34.6,161.1,34.6,161.2,34.6z M168.5,8.8L168.5,8.8c0.3,0,0.5,0.1,0.5,0.4v0.3c0,0.1-0.2,0.2-0.4,0.2h-0.1
				c-0.2-0.1-0.3-0.2-0.4-0.4V9C168.2,9,168.3,8.9,168.5,8.8z M169.7,7.3h0.3l0.1,0.3c0,0.1-0.2,0.2-0.4,0.2h-0.1l-0.1-0.3V7.4
				C169.5,7.3,169.6,7.3,169.7,7.3z M178.1,29.8v0.1h0.1L178.1,29.8L178.1,29.8z"/>
			<path id="XMLID_82_" class="st1" d="M168.9,10.3h0.3l0.1,0.3v0.1c-0.1,0-0.1,0-0.1,0.1c-0.2,0-0.3-0.1-0.4-0.2
				C168.9,10.5,168.9,10.4,168.9,10.3z M169.4,22.7h0.3l0.1,0.3v0.1l-0.3,0.1h-0.1l-0.1-0.3C169.3,22.8,169.4,22.7,169.4,22.7z
				 M170.1,11.8h0.4c0.2,0,0.3,0.1,0.4,0.2v0.2c0,0.1-0.1,0.2-0.4,0.3h-0.1c-0.2,0-0.3-0.1-0.4-0.3v-0.1L170.1,11.8z M183.8,8.5
				c0,0.2,0.1,0.3,0.1,0.3c0.4,0,0.9,0,1.5-0.1c0.8,0,1.3,0.2,1.6,0.5c0.2,0.1,0.3,0.1,0.4,0.1c1,0,1.7-0.2,2.1-0.6h0.1
				c0.3,0,0.8,0.1,1.3,0.2c0.2,0,0.4-0.1,0.6-0.1c0.1,0,0.5,0.2,1.1,0.6c0.4,0.1,0.9,0.2,1.6,0.2l0.1,0.2v0.1c0,0-0.2,0.1-0.5,0.3
				l-0.1,0.1c0.1,0,1,0.3,2.7,0.8c0.8,0.2,1.2,0.3,1.2,0.4v0.1c-0.1,0-0.2,0-0.2,0.1c-1.3-0.2-2.3-0.3-3-0.5
				c-1.2,0.1-1.8,0.2-1.8,0.4c0,0.1-0.1,0.2-0.3,0.2h-0.8l-1.2,0.2c0.1,0.1,0.1,0.2,0.1,0.3c-0.1,0.1-0.4,0.1-0.8,0.2
				c-1.4,0-2.6-0.1-3.4-0.1H186c-0.6,0-0.9,0.2-0.9,0.5h-0.5c-0.3,0-0.8,0.1-1.3,0.2l0.1,0.6c0,1-0.7,2.7-2,5.1c0,1-0.2,1.8-0.5,2.5
				h0.1c0.6-0.1,1-0.2,1.5-0.2c1.1,0,1.7,0.2,1.9,0.5h0.2c0.8,0,1.3-0.2,1.7-0.6h0.6c1.1,0,1.6,0.1,1.6,0.4c0,0,0.1,0.1,0.4,0.2
				l0.3-0.1h0.5c0.1,0.1,0.2,0.1,0.2,0.1l-0.2,0.6h0.2c0.5,0,1.5-0.1,3-0.2l0.1,0.1v0.1c0,0.1-0.6,0.3-1.9,0.5
				c-0.3,0.1-0.6,0.2-1.1,0.5c-0.5,0-0.8,0.2-1,0.5c-0.7,0-1.3,0.1-1.7,0.4c0,0,0.1,0.1,0.1,0.3c-0.3,0.1-0.6,0.2-0.8,0.2h-2.2
				c-0.8,0-1.2,0.2-1.2,0.5c-0.6,0.1-1.2,0.2-1.8,0.2c-0.1,0-0.4,0-1-0.1c-0.6,0-1,0.5-1.2,1.5c-0.5,1.4-1,2.3-1.5,2.7
				c-0.4,0.2-0.7,1-1,2.4V32c0.1,0.2,0.2,0.4,0.2,0.5c-0.1,0.3-0.4,0.9-0.9,1.9c-0.2,0.8-0.4,1.2-0.7,1.2c-0.2,0-0.5,0.7-0.9,2.2
				l-0.2,0.2c-0.1,0-0.1-0.2-0.2-0.6c0,0-0.1,0-0.2-0.1c-0.3,0.8-0.7,2.2-1.2,4.2l-0.2,0.2c-0.1,0-0.1,0-0.1-0.1
				c0-0.3,0.2-2.1,0.7-5.5c-0.1-0.5-0.2-0.8-0.2-0.9v-0.1c0.4-1.3,0.6-2.1,0.6-2.6c0,0-0.1,0-0.1-0.1l-0.1,0.1h-0.2v-0.1
				c0-0.3,0.3-1.2,0.9-2.6c0-0.3,0.4-1.2,1.1-2.9c0.1-0.3,0.2-0.6,0.2-1.1c-1.1-0.6-1.9-1.1-2.4-1.6v-0.7c-0.5-0.1-0.7-0.3-0.7-0.4
				L172,23c0-0.1-0.5-0.2-1.5-0.4l-0.1-0.1c0-0.2,0.8-0.3,2.3-0.3c0.5-0.1,1.1-0.3,1.9-0.7h0.6c0.1,0,0.4,0.1,0.9,0.3v-0.1
				c0.5-1.5,0.8-2.3,0.8-2.4v-0.8c0-0.1,0.3-1,0.8-2.5c0-0.8,0.2-1.5,0.5-2.2h-0.1c-0.2,0-0.3,0-0.3,0.1l-0.3-0.1h-0.2
				c-0.8,0.3-1.4,0.5-1.6,0.5h-0.1c-0.3,0-1-0.4-2.1-1.1c-0.5,0-1-0.3-1.6-0.9l0.1-0.8c-0.5,0-0.8-0.2-0.8-0.5
				c0.3-0.1,0.5-0.2,0.5-0.3c-1.1-0.3-1.6-0.5-1.6-0.6v-0.1c0-0.1,0.2-0.2,0.5-0.2h1.9c0.1,0,1.1-0.2,3-0.6h0.2
				c1.2,0.2,1.9,0.3,2.2,0.3c0.4,0,0.9-0.2,1.6-0.5c0.1,0,0.2-0.1,0.3-0.1h0.1c0.2,0,0.4,0.1,0.8,0.3c0,0,0.1,0,0.2,0.1
				c0.2-0.1,1-0.3,2.5-0.5C183.3,8.7,183.5,8.5,183.8,8.5z M170.6,24h0.5c0.2,0,0.3,0.1,0.3,0.3v0.1c0,0.1-0.1,0.2-0.4,0.4h-0.2
				c-0.2-0.1-0.3-0.3-0.3-0.5v-0.1C170.6,24.2,170.6,24.1,170.6,24z M173.8,37.7v0.1h0.1v-0.1H173.8z M175.8,9.5L175.8,9.5
				c0.1,0.1,0.2,0.1,0.2,0.1V9.6l-0.1-0.1H175.8z M181.3,8h0.2c0.3,0,0.5,0.1,0.5,0.2v0.3c0,0.2-0.1,0.3-0.2,0.4h-0.3
				c-0.2-0.3-0.2-0.4-0.2-0.5L181.3,8z M182.6,16v0.1h0.1L182.6,16L182.6,16z M183.2,7.2h0.4l0.1,0.3v0.1l-0.4,0.1l-0.1-0.3
				C183.2,7.3,183.2,7.2,183.2,7.2z M190.1,12.2L190.1,12.2l0.1,0.1v-0.1H190.1z"/>
		</g>
		<g id="XMLID_94_">
			<path id="XMLID_95_" class="st1" d="M81.3,61c0.6,0,1.2-0.1,1.6-0.2c0.4-0.1,0.7-0.2,1-0.4c0.2-0.2,0.4-0.4,0.5-0.6
				c0.1-0.2,0.1-0.5,0.1-0.8c0-0.6-0.3-1.2-0.9-1.6c-0.6-0.4-1.7-0.9-3.2-1.4c-0.6-0.2-1.3-0.5-1.9-0.8c-0.6-0.3-1.2-0.7-1.7-1.1
				c-0.5-0.4-0.9-1-1.3-1.6C75.1,51.8,75,51,75,50.1c0-0.9,0.2-1.7,0.5-2.5c0.3-0.7,0.8-1.4,1.5-1.9c0.6-0.5,1.4-0.9,2.3-1.2
				c0.9-0.3,1.9-0.4,3-0.4c1.3,0,2.5,0.1,3.5,0.4c1,0.3,1.8,0.6,2.4,0.9L86.8,49c-0.6-0.3-1.2-0.5-1.8-0.8c-0.7-0.2-1.5-0.3-2.4-0.3
				c-1.1,0-1.8,0.1-2.3,0.4c-0.5,0.3-0.7,0.7-0.7,1.4c0,0.4,0.1,0.7,0.3,0.9c0.2,0.2,0.4,0.5,0.7,0.7c0.3,0.2,0.7,0.4,1.1,0.5
				c0.4,0.2,0.9,0.3,1.4,0.5c1,0.4,1.9,0.8,2.7,1.1c0.8,0.4,1.4,0.8,1.9,1.3c0.5,0.5,0.9,1.1,1.1,1.7c0.2,0.7,0.4,1.5,0.4,2.4
				c0,1.9-0.6,3.3-1.9,4.3c-1.3,1-3.3,1.5-5.9,1.5c-0.9,0-1.7-0.1-2.4-0.2c-0.7-0.1-1.3-0.2-1.9-0.4c-0.5-0.2-1-0.3-1.4-0.5
				c-0.4-0.2-0.7-0.3-1-0.5l1.3-3.6c0.6,0.3,1.3,0.6,2.2,0.9C78.9,60.9,80,61,81.3,61z"/>
			<path id="XMLID_97_" class="st1" d="M111.4,54.5c0,1.7-0.3,3.2-0.8,4.5c-0.5,1.3-1.2,2.4-2.1,3.2c-0.9,0.9-1.9,1.5-3.1,2
				c-1.2,0.4-2.5,0.7-3.9,0.7c-1.4,0-2.6-0.2-3.8-0.7c-1.2-0.4-2.3-1.1-3.2-2c-0.9-0.9-1.6-1.9-2.1-3.2c-0.5-1.3-0.8-2.8-0.8-4.5
				c0-1.7,0.3-3.2,0.8-4.5c0.5-1.3,1.3-2.4,2.2-3.3c0.9-0.9,2-1.5,3.2-2c1.2-0.4,2.4-0.7,3.8-0.7c1.4,0,2.6,0.2,3.8,0.7
				c1.2,0.4,2.3,1.1,3.2,2c0.9,0.9,1.6,2,2.1,3.3C111.2,51.3,111.4,52.8,111.4,54.5z M96.3,54.5c0,1,0.1,1.9,0.4,2.6
				c0.2,0.8,0.6,1.5,1,2c0.4,0.6,1,1,1.6,1.3c0.6,0.3,1.4,0.5,2.2,0.5c0.8,0,1.6-0.2,2.2-0.5c0.7-0.3,1.2-0.7,1.7-1.3
				c0.4-0.6,0.8-1.2,1-2c0.2-0.8,0.4-1.7,0.4-2.6c0-1-0.1-1.9-0.4-2.7c-0.2-0.8-0.6-1.5-1-2c-0.4-0.6-1-1-1.7-1.3
				c-0.7-0.3-1.4-0.5-2.2-0.5c-0.8,0-1.6,0.2-2.2,0.5c-0.6,0.3-1.2,0.8-1.6,1.3c-0.4,0.6-0.8,1.2-1,2C96.4,52.7,96.3,53.5,96.3,54.5
				z"/>
			<path id="XMLID_100_" class="st1" d="M115.1,64.4V44.6h13.3v3.8h-8.8v4.2h7.8v3.8h-7.8v8.2H115.1z"/>
			<path id="XMLID_102_" class="st1" d="M146.9,44.6v3.8h-6v16h-4.5v-16h-6v-3.8H146.9z"/>
			<path id="XMLID_104_" class="st1" d="M157.5,64.8c-1.4,0-2.6-0.2-3.6-0.6c-1-0.4-1.8-0.9-2.5-1.6c-0.7-0.7-1.1-1.5-1.5-2.5
				c-0.3-1-0.5-2-0.5-3.2V44.6h4.5v12c0,0.8,0.1,1.5,0.3,2c0.2,0.6,0.4,1,0.7,1.4c0.3,0.4,0.7,0.6,1.1,0.8c0.4,0.2,0.9,0.2,1.5,0.2
				c1.1,0,2-0.3,2.6-1c0.7-0.7,1-1.8,1-3.4v-12h4.5v12.3c0,1.2-0.2,2.2-0.5,3.2c-0.3,1-0.8,1.8-1.5,2.5c-0.7,0.7-1.5,1.2-2.5,1.6
				C160.2,64.7,159,64.8,157.5,64.8z"/>
			<path id="XMLID_106_" class="st1" d="M183.4,64.4c-1.3-2.3-2.7-4.5-4.2-6.7c-1.5-2.2-3.1-4.3-4.8-6.3v13H170V44.6h3.6
				c0.6,0.6,1.3,1.4,2.1,2.3c0.8,0.9,1.5,1.9,2.3,2.9c0.8,1,1.6,2.1,2.4,3.2c0.8,1.1,1.5,2.2,2.2,3.2V44.6h4.4v19.9H183.4z"/>
			<path id="XMLID_108_" class="st1" d="M191.7,44.6h4.5v19.9h-4.5V44.6z"/>
		</g>
		<g id="XMLID_117_">
			<g id="XMLID_187_">
				<path id="XMLID_190_" class="st2" d="M189.2,35.2c0,1.2-0.2,2.3-0.5,3.2c-0.3,0.9-0.8,1.6-1.3,2.2c-0.5,0.6-1.1,1-1.8,1.3
					c-0.7,0.3-1.3,0.4-1.9,0.4c-0.5,0-0.9-0.1-1.3-0.2c-0.4-0.1-0.8-0.4-1.1-0.6c-0.3-0.3-0.6-0.6-0.7-1.1c-0.2-0.4-0.3-0.9-0.3-1.5
					c0-1.2,0.2-2.3,0.5-3.2c0.3-0.9,0.8-1.6,1.3-2.2c0.5-0.6,1.1-1,1.8-1.3c0.7-0.3,1.3-0.4,1.9-0.4c0.5,0,0.9,0.1,1.3,0.2
					c0.4,0.1,0.8,0.4,1.1,0.6c0.3,0.3,0.6,0.6,0.7,1.1C189.2,34.2,189.2,34.7,189.2,35.2z M181.6,38.9c0,0.8,0.2,1.3,0.6,1.7
					c0.4,0.4,0.9,0.6,1.5,0.6c0.5,0,0.9-0.1,1.4-0.4c0.5-0.2,0.9-0.6,1.4-1.1c0.4-0.5,0.7-1.1,1-1.8c0.3-0.7,0.4-1.6,0.4-2.6
					c0-0.8-0.2-1.3-0.6-1.7c-0.4-0.4-0.9-0.6-1.5-0.6c-0.5,0-0.9,0.1-1.4,0.4c-0.5,0.2-0.9,0.6-1.4,1.1c-0.4,0.5-0.7,1.1-1,1.8
					C181.7,37,181.6,37.9,181.6,38.9z"/>
				<path id="XMLID_188_" class="st2" d="M192,40.2c-0.2,0.6-0.3,1.2-0.5,1.7c-0.1,0.5-0.3,1-0.5,1.5c-0.2,0.5-0.4,0.9-0.7,1.3
					c-0.2,0.4-0.5,0.8-0.9,1.2l-1.1-0.2c0.3-0.4,0.6-0.8,0.8-1.2c0.2-0.4,0.4-0.7,0.6-1.1c0.2-0.4,0.3-0.7,0.4-1.1
					c0.1-0.4,0.2-0.8,0.3-1.2l2.4-10c0.2-0.8,0.4-1.4,0.7-1.9c0.3-0.5,0.7-0.9,1-1.2c0.4-0.3,0.8-0.5,1.2-0.6
					c0.4-0.1,0.9-0.2,1.3-0.2c0.4,0,0.8,0,1.1,0.1c0.3,0.1,0.6,0.2,0.9,0.3l-0.6,1c-0.3-0.1-0.5-0.2-0.8-0.2
					c-0.2-0.1-0.5-0.1-0.8-0.1c-0.3,0-0.6,0-0.9,0.1c-0.3,0.1-0.5,0.2-0.8,0.5c-0.2,0.2-0.5,0.5-0.7,0.9c-0.2,0.4-0.4,0.8-0.5,1.4
					l-0.3,1.1h3.4l-0.2,1.1h-3.4L192,40.2z"/>
			</g>
		</g>
	</g>
</g>
</svg>
